<?xml version="1.0" encoding="UTF-8"?>
<svg width="307px" height="453px" viewBox="0 0 307 453" version="1.1" xmlns="http://www.w3.org/2000/svg" xmlns:xlink="http://www.w3.org/1999/xlink">
    <!-- Generator: Sketch 52.3 (67297) - http://www.bohemiancoding.com/sketch -->
    <title>bottles</title>
    <desc>Created with Sketch.</desc>
    <g id="Final-design" stroke="none" stroke-width="1" fill="none" fill-rule="evenodd">
        <g id="Logos" transform="translate(-505.000000, -71.000000)" fill-rule="nonzero" stroke="#C9BC73" stroke-width="3">
            <g id="bottles" transform="translate(507.000000, 73.000000)">
                <path d="M267.939,136.043 L267.939,82.516 C271.421,80.953 273.847,77.453 273.847,73.389 L273.847,10 C273.847,4.478 269.369,0 263.847,0 L202.606,0 C197.084,0 192.606,4.478 192.606,10 L192.606,73.389 C192.606,77.453 195.033,80.952 198.514,82.516 L198.514,136.043 C177.201,148.366 163.745,171.327 163.745,196.225 L163.745,438.723 C163.745,444.245 168.223,448.723 173.745,448.723 L292.705,448.723 C298.228,448.723 302.705,444.245 302.705,438.723 L302.705,196.225 C302.708,171.327 289.253,148.366 267.939,136.043 Z M253.848,20 L253.848,63.389 L212.607,63.389 L212.607,20 L253.848,20 Z M282.708,428.723 L183.748,428.723 L183.748,196.225 C183.748,176.925 195.102,159.257 212.677,151.214 C216.234,149.586 218.515,146.033 218.515,142.121 L218.515,83.389 L247.94,83.389 L247.94,142.121 C247.94,146.033 250.221,149.586 253.778,151.214 C271.352,159.257 282.708,176.925 282.708,196.225 L282.708,428.723 Z" id="Shape"></path>
                <path d="M141.091,262.887 L10.017,262.887 C4.494,262.887 0.017,267.366 0.017,272.887 L0.017,282.866 C0.017,323.21 24.317,364.83 65.554,370.667 L65.554,419.592 C48.861,420.787 36.554,424.901 36.554,429.795 C36.554,435.623 54.014,440.35 75.554,440.35 C97.093,440.35 114.554,435.623 114.554,429.795 C114.554,424.899 102.247,420.787 85.554,419.592 L85.554,370.667 C126.79,364.829 151.09,323.21 151.09,282.866 L151.09,272.887 C151.091,267.363 146.614,262.887 141.091,262.887 Z M75.555,351.367 C37.258,351.367 20.026,311.33 20.018,282.887 L131.091,282.887 C131.082,311.33 113.851,351.367 75.555,351.367 Z" id="Shape"></path>
            </g>
        </g>
    </g>
</svg>