<?xml version="1.0" encoding="UTF-8"?>
<svg width="744px" height="323px" viewBox="0 0 744 323" version="1.1" xmlns="http://www.w3.org/2000/svg" xmlns:xlink="http://www.w3.org/1999/xlink">
    <!-- Generator: Sketch 52.3 (67297) - http://www.bohemiancoding.com/sketch -->
    <title>people</title>
    <desc>Created with Sketch.</desc>
    <g id="Final-design" stroke="none" stroke-width="1" fill="none" fill-rule="evenodd">
        <g id="Logos" transform="translate(-33.000000, -616.000000)" stroke="#D0C485" stroke-width="3">
            <g id="people" transform="translate(38.000000, 618.000000)">
                <g id="Group" transform="translate(367.000000, 159.500000) scale(-1, 1) rotate(-180.000000) translate(-367.000000, -159.500000) ">
                    <path d="M357.825,318.485299 C331.848281,315.968985 307.075781,302.072069 291.248906,281.083722 C281.500469,268.159018 275.651406,253.976156 273.185625,237.105414 C271.981406,228.984582 272.382812,214.515776 274.045781,206.337755 C277.658437,188.55199 286.202656,172.310326 298.703594,159.385622 C317.397656,140.055755 340.335156,130.276443 367,130.276443 C393.664844,130.276443 416.602344,140.055755 435.296406,159.385622 C445.388906,169.851201 452.442188,181.517748 457.029688,195.471854 C460.470313,206.166189 461.330469,211.827895 461.330469,224.752599 C461.273125,236.533525 460.699687,241.280208 457.947188,250.773575 C448.313438,284.000359 420.559062,309.735389 386.668906,316.769631 C376.347031,318.942811 367.745469,319.457512 357.825,318.485299 Z" id="Path"></path>
                    <path d="M131.603906,249.858551 C125.754844,249.286662 118.3575,247.513804 112.795156,245.340624 C91.8646875,237.33417 75.464375,220.005916 68.583125,198.731624 C63.995625,184.434385 63.995625,167.73521 68.6404687,153.552349 C73.9160937,137.482252 84.1232812,123.985658 98.1725,114.492291 C105.627187,109.402474 117.210625,104.884546 126.787031,103.226067 C133.553594,102.025099 145.137031,102.025099 151.903594,103.226067 C182.639844,108.54464 206.953594,132.62119 212.458594,163.33166 C213.662812,169.90839 213.662812,182.318394 212.515937,188.837935 C206.552187,222.00753 180.002031,246.484403 146.283906,249.858551 C139.746719,250.544819 138.255781,250.544819 131.603906,249.858551 Z" id="Path"></path>
                    <path d="M586.913281,249.858551 C578.541094,249.000717 568.448594,246.026891 560.936562,242.25242 C555.144844,239.335783 547.174062,233.50251 542.185156,228.469882 C521.197344,207.595913 514.832187,176.542309 525.7275,148.748476 C535.074531,125.072248 556.693125,107.629616 582.096406,103.226067 C588.862969,102.025099 600.446406,102.025099 607.212969,103.226067 C616.732031,104.884546 628.430156,109.459663 635.942187,114.54948 C661.173437,131.591789 673.559687,162.130692 667.251875,191.868949 C666.219687,196.7872 663.295156,205.079598 661.173437,209.36877 C658.076875,215.487989 652.285156,223.380065 647.124219,228.469882 C634.795312,240.822696 619.255156,248.085694 601.593281,249.858551 C595.056094,250.544819 593.565156,250.544819 586.913281,249.858551 Z" id="Path"></path>
                    <path d="M325.425781,123.699713 C324.164219,123.585335 320.150156,122.956257 316.5375,122.327178 C270.891875,114.377913 226.278437,78.9779491 201.85,31.1679814 C197.033125,21.7889925 189.807812,3.54571531 189.807812,0.743456436 C189.807812,0.114377913 219.626562,0 367,0 C514.373438,0 544.192188,0.114377913 544.192188,0.743456436 C544.192188,3.54571531 536.966875,21.7889925 532.15,31.1679814 C511.965,70.5711725 477.845469,102.082288 439.826563,116.265149 C432.773281,118.895841 425.662656,120.840265 417.4625,122.441556 C411.04,123.756902 409.950469,123.756902 369.29375,123.87128 C346.413594,123.87128 326.687344,123.814091 325.425781,123.699713 Z" id="Path"></path>
                    <path d="M104.365625,96.8209035 C88.3667188,94.1330226 74.546875,89.1003944 61.93125,81.3798853 C38.3629688,66.9110792 18.2353125,43.9211187 6.88125,18.414844 C4.64484375,13.4394048 0,1.14377913 0,0.228755826 C0,0.114377913 40.2553125,0 89.45625,0 C160.5625,0 178.969844,0.17156687 179.141875,0.686267479 C179.256563,1.08659018 180.28875,4.51792757 181.492969,8.29239871 C188.431563,30.4817139 201.620625,54.3866977 216.816719,72.458408 C219.339844,75.3750448 221.346875,77.8913589 221.346875,78.0629258 C221.346875,78.7491933 212.687969,83.8390104 206.265469,86.9272141 C197.893281,90.930441 189.865156,93.7898888 181.722344,95.5627465 C175.873281,96.8780925 175.185156,96.9352815 140.778906,96.9924704 C121.56875,97.0496594 105.168438,96.9924704 104.365625,96.8209035 Z" id="Path"></path>
                    <path d="M559.675,96.8780925 C546.887344,94.7049122 538.687187,92.1885981 528.365312,87.2131588 C521.369375,83.8961994 512.653125,78.8063822 512.653125,78.0629258 C512.653125,77.83417 514.144062,76.0041233 515.979062,73.8881319 C533.0675,53.986375 547.919531,26.0781642 554.858125,0.743456436 C555.030156,0.17156687 573.4375,0 644.54375,0 C693.744687,0 734,0.114377913 734,0.228755826 C734,0.34313374 733.0825,3.14539261 731.935625,6.40516314 C724.36625,28.0797777 711.693281,47.7527788 695.178281,63.4797418 C678.147187,79.7214055 658.191562,90.7588741 637.089062,95.6199355 C631.813437,96.8209035 630.437187,96.8780925 596.375,96.9924704 C576.992812,97.0496594 560.477812,96.9924704 559.675,96.8780925 Z" id="Path"></path>
                </g>
            </g>
        </g>
    </g>
</svg>