<?xml version="1.0" encoding="UTF-8"?>
<svg width="304px" height="352px" viewBox="0 0 304 352" version="1.1" xmlns="http://www.w3.org/2000/svg" xmlns:xlink="http://www.w3.org/1999/xlink">
    <!-- Generator: Sketch 52.3 (67297) - http://www.bohemiancoding.com/sketch -->
    <title>server</title>
    <desc>Created with Sketch.</desc>
    <g id="Final-design" stroke="none" stroke-width="1" fill="none" fill-rule="evenodd" fill-opacity="0">
        <g id="Logos" transform="translate(-115.000000, -71.000000)" fill="#000000" fill-rule="nonzero" stroke="#C9BC73" stroke-width="3">
            <g id="server" transform="translate(117.000000, 73.000000)">
                <path d="M275,124.285714 L25,124.285714 C11.328125,124.285714 0,136.714286 0,149.142857 L0,198.857143 C0,211.285714 12.5,223.714286 25,223.714286 L275,223.714286 C287.5,223.714286 300,211.285714 300,198.857143 L300,149.142857 C300,136.714286 287.5,124.285714 275,124.285714 Z M50,198.857143 L25,198.857143 L25,149.142857 L50,149.142857 L50,198.857143 Z M100,198.857143 L75,198.857143 L75,149.142857 L100,149.142857 L100,198.857143 Z M150,198.857143 L125,198.857143 L125,149.142857 L150,149.142857 L150,198.857143 Z M200,198.857143 L175,198.857143 L175,149.142857 L200,149.142857 L200,198.857143 Z M275,248.571429 L25,248.571429 C11.328125,248.571429 0,261 0,273.428571 L0,323.142857 C0,335.571429 12.5,348 25,348 L275,348 C287.5,348 300,335.571429 300,323.142857 L300,273.428571 C300,261 287.5,248.571429 275,248.571429 Z M50,323.142857 L25,323.142857 L25,273.428571 L50,273.428571 L50,323.142857 Z M100,323.142857 L75,323.142857 L75,273.428571 L100,273.428571 L100,323.142857 Z M150,323.142857 L125,323.142857 L125,273.428571 L150,273.428571 L150,323.142857 Z M200,323.142857 L175,323.142857 L175,273.428571 L200,273.428571 L200,323.142857 Z M275,0 L25,0 C11.328125,0 0,12.4285714 0,24.8571429 L0,74.5714286 C0,87 12.5,99.4285714 25,99.4285714 L275,99.4285714 C287.5,99.4285714 300,87 300,74.5714286 L300,24.8571429 C300,12.4285714 287.5,0 275,0 Z M50,74.5714286 L25,74.5714286 L25,24.8571429 L50,24.8571429 L50,74.5714286 Z M100,74.5714286 L75,74.5714286 L75,24.8571429 L100,24.8571429 L100,74.5714286 Z M150,74.5714286 L125,74.5714286 L125,24.8571429 L150,24.8571429 L150,74.5714286 Z M200,74.5714286 L175,74.5714286 L175,24.8571429 L200,24.8571429 L200,74.5714286 Z M275,49.7142857 L250,49.7142857 L250,24.8571429 L275,24.8571429 L275,49.7142857 Z" id="Shape"></path>
            </g>
        </g>
    </g>
</svg>